<svg xmlns="http://www.w3.org/2000/svg" data-name="Layer 1" viewBox="0 0 100 125" x="0px" y="0px"><title>02</title><g data-name="Group"><path data-name="Compound Path" d="M97.4,63.7A20.1,20.1,0,0,0,86.6,45.9a13.5,13.5,0,1,0-18.5,0,20,20,0,0,0-5.5,4.2,13.5,13.5,0,1,0-25.1,0A20.1,20.1,0,0,0,32,45.9a13.5,13.5,0,1,0-18.5,0A20.1,20.1,0,0,0,2.6,63.7v4.5h6V63.7a14.1,14.1,0,0,1,27.2-5.1,20,20,0,0,0-5.9,14.2v4.5h6V72.8a14.1,14.1,0,1,1,28.1,0v4.5h6V72.8a20,20,0,0,0-5.9-14.2,14.1,14.1,0,0,1,27.2,5.1v4.5h6ZM15.2,36.2a7.5,7.5,0,1,1,7.5,7.5A7.5,7.5,0,0,1,15.2,36.2ZM50,37.8a7.5,7.5,0,1,1-7.5,7.5A7.5,7.5,0,0,1,50,37.8Zm19.8-1.6a7.5,7.5,0,1,1,7.5,7.5A7.5,7.5,0,0,1,69.8,36.2Z"/></g><text x="0" y="115" fill="#000000" font-size="5px" font-weight="bold" font-family="'Helvetica Neue', Helvetica, Arial-Unicode, Arial, Sans-serif">Created by Shastry</text><text x="0" y="120" fill="#000000" font-size="5px" font-weight="bold" font-family="'Helvetica Neue', Helvetica, Arial-Unicode, Arial, Sans-serif">from the Noun Project</text></svg>